<mxfile host="Electron" modified="2024-08-23T09:29:28.981Z" agent="Mozilla/5.0 (Windows NT 10.0; Win64; x64) AppleWebKit/537.36 (KHTML, like Gecko) draw.io/24.5.3 Chrome/124.0.6367.207 Electron/30.0.6 Safari/537.36" etag="Db_eYj9kdfu-TDKJotQ8" version="24.5.3" type="device">
  <diagram name="class" id="ET95HOl6QCIjpHa3j1Hr">
    <mxGraphModel dx="2603" dy="1711" grid="1" gridSize="10" guides="1" tooltips="1" connect="1" arrows="1" fold="1" page="1" pageScale="1" pageWidth="1169" pageHeight="827" math="0" shadow="0">
      <root>
        <mxCell id="0" />
        <mxCell id="1" parent="0" />
        <mxCell id="cke95gwzbSe76c0CqrXO-1" value="LocationService" style="shape=folder;fontStyle=1;spacingTop=10;tabWidth=40;tabHeight=14;tabPosition=left;html=1;whiteSpace=wrap;align=left;verticalAlign=top;" parent="1" vertex="1">
          <mxGeometry x="-1140" y="-790" width="1160" height="1680" as="geometry" />
        </mxCell>
        <mxCell id="cke95gwzbSe76c0CqrXO-2" value="LocationService" style="swimlane;fontStyle=0;childLayout=stackLayout;horizontal=1;startSize=26;fillColor=none;horizontalStack=0;resizeParent=1;resizeParentMax=0;resizeLast=0;collapsible=1;marginBottom=0;whiteSpace=wrap;html=1;" parent="1" vertex="1">
          <mxGeometry x="-1050" y="-50" width="500" height="630" as="geometry" />
        </mxCell>
        <mxCell id="2" value="&lt;div&gt;+ logger: Logger&lt;br&gt;&lt;/div&gt;&lt;div&gt;- MAX_USED_DISTANCE_FOR_OFFSET_PERCENT: float&lt;/div&gt;&lt;div&gt;# simulation_ticks_per_second: int&lt;/div&gt;&lt;div&gt;- start_immediately: bool&lt;/div&gt;&lt;div&gt;&lt;br&gt;&lt;/div&gt;&lt;div&gt;- MAX_ANKI_SPEED: int&lt;/div&gt;&lt;div&gt;- LANE_OFFSET: float&lt;/div&gt;&lt;div&gt;&lt;br&gt;&lt;/div&gt;&lt;div&gt;# value_mutex: Lock&lt;/div&gt;&lt;div&gt;# actual_speed: float&lt;/div&gt;&lt;div&gt;# target_speed: float&lt;/div&gt;&lt;div&gt;# acceleration: float&lt;/div&gt;&lt;div&gt;# actual_offset: float&lt;/div&gt;&lt;div&gt;# target_offset: float&lt;/div&gt;&lt;div&gt;# direction_mult: int&lt;/div&gt;&lt;div&gt;# stop_direction: Angle&lt;/div&gt;&lt;div&gt;# uturn_override: UTurnOverride | None&lt;/div&gt;&lt;div&gt;&lt;br&gt;&lt;/div&gt;&lt;div&gt;# track: FullTrack&lt;/div&gt;&lt;div&gt;# current_piece_index: int&lt;/div&gt;&lt;div&gt;# progress_on_current_piece: float&lt;/div&gt;&lt;div&gt;+ first_piece: TrackPiece&lt;/div&gt;&lt;div&gt;# current_position: Position&lt;/div&gt;&lt;div&gt;&lt;br&gt;&lt;/div&gt;&lt;div&gt;# on_update_callback: Callable&lt;/div&gt;" style="rounded=0;whiteSpace=wrap;html=1;align=left;" parent="cke95gwzbSe76c0CqrXO-2" vertex="1">
          <mxGeometry y="26" width="500" height="374" as="geometry" />
        </mxCell>
        <mxCell id="4" value="&lt;div&gt;+ &lt;b&gt;set_on_update_callback&lt;/b&gt;(callback_function: Callable[[Position, Angle, dict], None]): None&lt;/div&gt;&lt;div&gt;+ async &lt;b&gt;do_uturn&lt;/b&gt;(): None&lt;/div&gt;&lt;div&gt;+ async &lt;b&gt;set_speed_percent&lt;/b&gt;(speed: int, acceleration: int): None&lt;/div&gt;&lt;div&gt;#&amp;nbsp;&lt;b&gt;set_speed_mm&lt;/b&gt;(speed_mm: float, acceleration: int): None&lt;/div&gt;&lt;div&gt;+ async &lt;b&gt;set_offset_int&lt;/b&gt;(offset: int): None&lt;/div&gt;&lt;div&gt;#&lt;b&gt; set_offset_mm&lt;/b&gt;(offset: float): None&lt;/div&gt;&lt;div&gt;#&lt;b&gt; adjust_speed&lt;/b&gt;(): None&lt;/div&gt;&lt;div&gt;#&amp;nbsp;&lt;b&gt;adjust_speed_to&lt;/b&gt;(target_speed: float): None&lt;/div&gt;&lt;div&gt;#&amp;nbsp;&lt;b&gt;adjust_offset&lt;/b&gt;(travel_distance: float): float&lt;/div&gt;&lt;div&gt;#&amp;nbsp;&lt;b&gt;adjust_offset_on_piece&lt;/b&gt;(old_offset: float, new_offset: float): None&lt;/div&gt;&lt;div&gt;# async &lt;b&gt;run_simulation_step_threadsafe&lt;/b&gt;(): tuple[Position, Angle]&lt;/div&gt;&lt;div&gt;#&amp;nbsp;&lt;b&gt;run_simulation_step&lt;/b&gt;(distance: float): Tuple[Position, Angle]&lt;/div&gt;&lt;div&gt;# async &lt;b&gt;run_task&lt;/b&gt;(): None&lt;/div&gt;&lt;div&gt;+ &lt;b&gt;start&lt;/b&gt;(): None&lt;/div&gt;&lt;div style=&quot;&quot;&gt;+ &lt;b&gt;stop&lt;/b&gt;(): None&lt;/div&gt;&lt;div style=&quot;&quot;&gt;+&amp;nbsp;&lt;b&gt;notify_new_track&lt;/b&gt;(new_track: FullTrack): None&lt;/div&gt;" style="rounded=0;whiteSpace=wrap;html=1;align=left;" parent="cke95gwzbSe76c0CqrXO-2" vertex="1">
          <mxGeometry y="400" width="500" height="230" as="geometry" />
        </mxCell>
        <mxCell id="3" style="edgeStyle=orthogonalEdgeStyle;rounded=0;orthogonalLoop=1;jettySize=auto;html=1;entryX=1;entryY=0.25;entryDx=0;entryDy=0;exitX=0.494;exitY=1;exitDx=0;exitDy=0;exitPerimeter=0;endArrow=none;endFill=0;" parent="1" source="cke95gwzbSe76c0CqrXO-4" target="cke95gwzbSe76c0CqrXO-2" edge="1">
          <mxGeometry relative="1" as="geometry" />
        </mxCell>
        <mxCell id="cke95gwzbSe76c0CqrXO-3" value="UTurnOverride" style="swimlane;fontStyle=0;childLayout=stackLayout;horizontal=1;startSize=26;fillColor=none;horizontalStack=0;resizeParent=1;resizeParentMax=0;resizeLast=0;collapsible=1;marginBottom=0;whiteSpace=wrap;html=1;" parent="1" vertex="1">
          <mxGeometry x="-490" y="-150" width="180" height="80" as="geometry" />
        </mxCell>
        <mxCell id="cke95gwzbSe76c0CqrXO-4" value="Override LocationService to do a complete UTurn" style="text;strokeColor=none;fillColor=none;align=left;verticalAlign=top;spacingLeft=4;spacingRight=4;overflow=hidden;rotatable=0;points=[[0,0.5],[1,0.5]];portConstraint=eastwest;whiteSpace=wrap;html=1;" parent="cke95gwzbSe76c0CqrXO-3" vertex="1">
          <mxGeometry y="26" width="180" height="54" as="geometry" />
        </mxCell>
        <mxCell id="cke95gwzbSe76c0CqrXO-5" value="TrackPiece : ABC" style="swimlane;fontStyle=0;childLayout=stackLayout;horizontal=1;startSize=26;fillColor=none;horizontalStack=0;resizeParent=1;resizeParentMax=0;resizeLast=0;collapsible=1;marginBottom=0;whiteSpace=wrap;html=1;" parent="1" vertex="1">
          <mxGeometry x="-500" y="-600" width="180" height="80" as="geometry" />
        </mxCell>
        <mxCell id="cke95gwzbSe76c0CqrXO-6" value="Calculate progress on track pice itself. Holds meta data of track piece" style="text;strokeColor=none;fillColor=none;align=left;verticalAlign=top;spacingLeft=4;spacingRight=4;overflow=hidden;rotatable=0;points=[[0,0.5],[1,0.5]];portConstraint=eastwest;whiteSpace=wrap;html=1;" parent="cke95gwzbSe76c0CqrXO-5" vertex="1">
          <mxGeometry y="26" width="180" height="54" as="geometry" />
        </mxCell>
        <mxCell id="cke95gwzbSe76c0CqrXO-7" value="TrackEntry" style="swimlane;fontStyle=0;childLayout=stackLayout;horizontal=1;startSize=26;fillColor=none;horizontalStack=0;resizeParent=1;resizeParentMax=0;resizeLast=0;collapsible=1;marginBottom=0;whiteSpace=wrap;html=1;" parent="1" vertex="1">
          <mxGeometry x="-730" y="-351" width="140" height="52" as="geometry" />
        </mxCell>
        <mxCell id="cke95gwzbSe76c0CqrXO-8" value="FullTrack" style="swimlane;fontStyle=0;childLayout=stackLayout;horizontal=1;startSize=26;fillColor=none;horizontalStack=0;resizeParent=1;resizeParentMax=0;resizeLast=0;collapsible=1;marginBottom=0;whiteSpace=wrap;html=1;" parent="1" vertex="1">
          <mxGeometry x="-970" y="-696" width="140" height="52" as="geometry" />
        </mxCell>
        <mxCell id="cke95gwzbSe76c0CqrXO-9" value="Represent the full track." style="text;strokeColor=none;fillColor=none;align=left;verticalAlign=top;spacingLeft=4;spacingRight=4;overflow=hidden;rotatable=0;points=[[0,0.5],[1,0.5]];portConstraint=eastwest;whiteSpace=wrap;html=1;" parent="cke95gwzbSe76c0CqrXO-8" vertex="1">
          <mxGeometry y="26" width="140" height="26" as="geometry" />
        </mxCell>
        <mxCell id="cke95gwzbSe76c0CqrXO-10" value="StraightPiece" style="swimlane;fontStyle=0;childLayout=stackLayout;horizontal=1;startSize=26;fillColor=none;horizontalStack=0;resizeParent=1;resizeParentMax=0;resizeLast=0;collapsible=1;marginBottom=0;whiteSpace=wrap;html=1;" parent="1" vertex="1">
          <mxGeometry x="-600" y="-470" width="180" height="80" as="geometry" />
        </mxCell>
        <mxCell id="cke95gwzbSe76c0CqrXO-11" value="Implementation of a straight track pice." style="text;strokeColor=none;fillColor=none;align=left;verticalAlign=top;spacingLeft=4;spacingRight=4;overflow=hidden;rotatable=0;points=[[0,0.5],[1,0.5]];portConstraint=eastwest;whiteSpace=wrap;html=1;" parent="cke95gwzbSe76c0CqrXO-10" vertex="1">
          <mxGeometry y="26" width="180" height="54" as="geometry" />
        </mxCell>
        <mxCell id="cke95gwzbSe76c0CqrXO-12" value="CurvedPiece" style="swimlane;fontStyle=0;childLayout=stackLayout;horizontal=1;startSize=26;fillColor=none;horizontalStack=0;resizeParent=1;resizeParentMax=0;resizeLast=0;collapsible=1;marginBottom=0;whiteSpace=wrap;html=1;" parent="1" vertex="1">
          <mxGeometry x="-375" y="-470" width="180" height="80" as="geometry" />
        </mxCell>
        <mxCell id="cke95gwzbSe76c0CqrXO-13" value="Implementation of a curved track pice." style="text;strokeColor=none;fillColor=none;align=left;verticalAlign=top;spacingLeft=4;spacingRight=4;overflow=hidden;rotatable=0;points=[[0,0.5],[1,0.5]];portConstraint=eastwest;whiteSpace=wrap;html=1;" parent="cke95gwzbSe76c0CqrXO-12" vertex="1">
          <mxGeometry y="26" width="180" height="54" as="geometry" />
        </mxCell>
        <mxCell id="cke95gwzbSe76c0CqrXO-14" value="" style="endArrow=block;endSize=10;endFill=0;html=1;rounded=0;edgeStyle=orthogonalEdgeStyle;startSize=6;" parent="1" source="cke95gwzbSe76c0CqrXO-10" target="cke95gwzbSe76c0CqrXO-5" edge="1">
          <mxGeometry width="160" relative="1" as="geometry">
            <mxPoint x="-80" y="-500" as="sourcePoint" />
            <mxPoint x="80" y="-500" as="targetPoint" />
          </mxGeometry>
        </mxCell>
        <mxCell id="cke95gwzbSe76c0CqrXO-15" value="" style="endArrow=block;endSize=10;endFill=0;html=1;rounded=0;edgeStyle=orthogonalEdgeStyle;" parent="1" source="cke95gwzbSe76c0CqrXO-12" target="cke95gwzbSe76c0CqrXO-5" edge="1">
          <mxGeometry width="160" relative="1" as="geometry">
            <mxPoint x="-469" y="-440" as="sourcePoint" />
            <mxPoint x="-431" y="-490" as="targetPoint" />
          </mxGeometry>
        </mxCell>
        <mxCell id="cke95gwzbSe76c0CqrXO-16" value="TrackBuilder" style="swimlane;fontStyle=0;childLayout=stackLayout;horizontal=1;startSize=26;fillColor=none;horizontalStack=0;resizeParent=1;resizeParentMax=0;resizeLast=0;collapsible=1;marginBottom=0;whiteSpace=wrap;html=1;" parent="1" vertex="1">
          <mxGeometry x="-510" y="-720" width="200" height="100" as="geometry" />
        </mxCell>
        <mxCell id="cke95gwzbSe76c0CqrXO-17" value="Build an entire track by chaining append() calls with the desired direction." style="text;strokeColor=none;fillColor=none;align=left;verticalAlign=top;spacingLeft=4;spacingRight=4;overflow=hidden;rotatable=0;points=[[0,0.5],[1,0.5]];portConstraint=eastwest;whiteSpace=wrap;html=1;" parent="cke95gwzbSe76c0CqrXO-16" vertex="1">
          <mxGeometry y="26" width="200" height="74" as="geometry" />
        </mxCell>
        <mxCell id="cke95gwzbSe76c0CqrXO-18" value="Angle" style="swimlane;fontStyle=0;childLayout=stackLayout;horizontal=1;startSize=26;fillColor=none;horizontalStack=0;resizeParent=1;resizeParentMax=0;resizeLast=0;collapsible=1;marginBottom=0;whiteSpace=wrap;html=1;" parent="1" vertex="1">
          <mxGeometry x="-370" y="-280" width="180" height="80" as="geometry" />
        </mxCell>
        <mxCell id="cke95gwzbSe76c0CqrXO-19" value="Generic class for angles where 0° means the Angle is pointing up/north" style="text;strokeColor=none;fillColor=none;align=left;verticalAlign=top;spacingLeft=4;spacingRight=4;overflow=hidden;rotatable=0;points=[[0,0.5],[1,0.5]];portConstraint=eastwest;whiteSpace=wrap;html=1;" parent="cke95gwzbSe76c0CqrXO-18" vertex="1">
          <mxGeometry y="26" width="180" height="54" as="geometry" />
        </mxCell>
        <mxCell id="cke95gwzbSe76c0CqrXO-20" value="Position" style="swimlane;fontStyle=0;childLayout=stackLayout;horizontal=1;startSize=26;fillColor=none;horizontalStack=0;resizeParent=1;resizeParentMax=0;resizeLast=0;collapsible=1;marginBottom=0;whiteSpace=wrap;html=1;" parent="1" vertex="1">
          <mxGeometry x="-600" y="-280" width="180" height="70" as="geometry" />
        </mxCell>
        <mxCell id="cke95gwzbSe76c0CqrXO-21" value="Generic Position in a 2 dimensional space" style="text;strokeColor=none;fillColor=none;align=left;verticalAlign=top;spacingLeft=4;spacingRight=4;overflow=hidden;rotatable=0;points=[[0,0.5],[1,0.5]];portConstraint=eastwest;whiteSpace=wrap;html=1;" parent="cke95gwzbSe76c0CqrXO-20" vertex="1">
          <mxGeometry y="26" width="180" height="44" as="geometry" />
        </mxCell>
        <mxCell id="cke95gwzbSe76c0CqrXO-22" value="" style="endArrow=none;html=1;rounded=0;edgeStyle=orthogonalEdgeStyle;dashed=1;dashPattern=12 12;" parent="1" source="cke95gwzbSe76c0CqrXO-20" target="cke95gwzbSe76c0CqrXO-11" edge="1">
          <mxGeometry width="50" height="50" relative="1" as="geometry">
            <mxPoint x="-270" y="-320" as="sourcePoint" />
            <mxPoint x="-220" y="-370" as="targetPoint" />
            <Array as="points">
              <mxPoint x="-510" y="-350" />
              <mxPoint x="-510" y="-350" />
            </Array>
          </mxGeometry>
        </mxCell>
        <mxCell id="cke95gwzbSe76c0CqrXO-23" value="" style="endArrow=none;html=1;rounded=0;edgeStyle=orthogonalEdgeStyle;dashed=1;dashPattern=12 12;" parent="1" source="cke95gwzbSe76c0CqrXO-20" target="cke95gwzbSe76c0CqrXO-12" edge="1">
          <mxGeometry width="50" height="50" relative="1" as="geometry">
            <mxPoint x="-270" y="-320" as="sourcePoint" />
            <mxPoint x="-220" y="-370" as="targetPoint" />
            <Array as="points">
              <mxPoint x="-480" y="-320" />
              <mxPoint x="-310" y="-320" />
            </Array>
          </mxGeometry>
        </mxCell>
        <mxCell id="cke95gwzbSe76c0CqrXO-24" value="" style="endArrow=none;html=1;rounded=0;dashed=1;dashPattern=12 12;" parent="1" source="cke95gwzbSe76c0CqrXO-18" target="cke95gwzbSe76c0CqrXO-12" edge="1">
          <mxGeometry width="50" height="50" relative="1" as="geometry">
            <mxPoint x="-270" y="-320" as="sourcePoint" />
            <mxPoint x="-220" y="-370" as="targetPoint" />
          </mxGeometry>
        </mxCell>
        <mxCell id="cke95gwzbSe76c0CqrXO-25" value="" style="endArrow=none;html=1;rounded=0;" parent="1" source="cke95gwzbSe76c0CqrXO-16" target="cke95gwzbSe76c0CqrXO-8" edge="1">
          <mxGeometry width="50" height="50" relative="1" as="geometry">
            <mxPoint x="-270" y="-420" as="sourcePoint" />
            <mxPoint x="-220" y="-470" as="targetPoint" />
          </mxGeometry>
        </mxCell>
        <mxCell id="cke95gwzbSe76c0CqrXO-26" value="" style="endArrow=none;html=1;rounded=0;" parent="1" source="cke95gwzbSe76c0CqrXO-16" target="cke95gwzbSe76c0CqrXO-5" edge="1">
          <mxGeometry width="50" height="50" relative="1" as="geometry">
            <mxPoint x="-270" y="-420" as="sourcePoint" />
            <mxPoint x="-220" y="-470" as="targetPoint" />
          </mxGeometry>
        </mxCell>
        <mxCell id="cke95gwzbSe76c0CqrXO-27" value="" style="endArrow=none;html=1;rounded=0;edgeStyle=orthogonalEdgeStyle;" parent="1" source="cke95gwzbSe76c0CqrXO-20" target="cke95gwzbSe76c0CqrXO-8" edge="1">
          <mxGeometry width="50" height="50" relative="1" as="geometry">
            <mxPoint x="-270" y="-320" as="sourcePoint" />
            <mxPoint x="-220" y="-370" as="targetPoint" />
            <Array as="points">
              <mxPoint x="-920" y="-245" />
            </Array>
          </mxGeometry>
        </mxCell>
        <mxCell id="cke95gwzbSe76c0CqrXO-28" value="" style="endArrow=none;html=1;rounded=0;edgeStyle=orthogonalEdgeStyle;" parent="1" source="cke95gwzbSe76c0CqrXO-7" target="cke95gwzbSe76c0CqrXO-20" edge="1">
          <mxGeometry width="50" height="50" relative="1" as="geometry">
            <mxPoint x="-270" y="-320" as="sourcePoint" />
            <mxPoint x="-220" y="-370" as="targetPoint" />
            <Array as="points">
              <mxPoint x="-650" y="-260" />
            </Array>
          </mxGeometry>
        </mxCell>
        <mxCell id="cke95gwzbSe76c0CqrXO-29" value="" style="endArrow=none;html=1;rounded=0;edgeStyle=orthogonalEdgeStyle;exitX=0.25;exitY=0;exitDx=0;exitDy=0;" parent="1" source="cke95gwzbSe76c0CqrXO-2" target="cke95gwzbSe76c0CqrXO-8" edge="1">
          <mxGeometry width="50" height="50" relative="1" as="geometry">
            <mxPoint x="-270" y="-380" as="sourcePoint" />
            <mxPoint x="-220" y="-430" as="targetPoint" />
            <Array as="points">
              <mxPoint x="-925" y="-240" />
              <mxPoint x="-950" y="-240" />
            </Array>
          </mxGeometry>
        </mxCell>
        <mxCell id="cke95gwzbSe76c0CqrXO-30" value="" style="endArrow=none;html=1;rounded=0;edgeStyle=orthogonalEdgeStyle;dashed=1;dashPattern=12 12;" parent="1" source="cke95gwzbSe76c0CqrXO-20" target="cke95gwzbSe76c0CqrXO-2" edge="1">
          <mxGeometry width="50" height="50" relative="1" as="geometry">
            <mxPoint x="-270" y="-380" as="sourcePoint" />
            <mxPoint x="-220" y="-430" as="targetPoint" />
            <Array as="points">
              <mxPoint x="-510" y="-70" />
            </Array>
          </mxGeometry>
        </mxCell>
        <mxCell id="cke95gwzbSe76c0CqrXO-31" value="" style="endArrow=none;html=1;rounded=0;edgeStyle=orthogonalEdgeStyle;exitX=1;exitY=0.25;exitDx=0;exitDy=0;dashed=1;dashPattern=12 12;" parent="1" source="2" target="cke95gwzbSe76c0CqrXO-18" edge="1">
          <mxGeometry width="50" height="50" relative="1" as="geometry">
            <mxPoint x="-490" y="133" as="sourcePoint" />
            <mxPoint x="-220" y="-430" as="targetPoint" />
          </mxGeometry>
        </mxCell>
        <mxCell id="cke95gwzbSe76c0CqrXO-32" value="" style="endArrow=none;html=1;rounded=0;edgeStyle=orthogonalEdgeStyle;dashed=1;dashPattern=12 12;" parent="1" source="cke95gwzbSe76c0CqrXO-3" target="cke95gwzbSe76c0CqrXO-20" edge="1">
          <mxGeometry width="50" height="50" relative="1" as="geometry">
            <mxPoint x="-270" y="-280" as="sourcePoint" />
            <mxPoint x="-220" y="-330" as="targetPoint" />
            <Array as="points">
              <mxPoint x="-460" y="-160" />
              <mxPoint x="-460" y="-160" />
            </Array>
          </mxGeometry>
        </mxCell>
        <mxCell id="cke95gwzbSe76c0CqrXO-33" value="" style="endArrow=none;html=1;rounded=0;edgeStyle=orthogonalEdgeStyle;dashed=1;dashPattern=12 12;" parent="1" source="cke95gwzbSe76c0CqrXO-3" target="cke95gwzbSe76c0CqrXO-18" edge="1">
          <mxGeometry width="50" height="50" relative="1" as="geometry">
            <mxPoint x="-425" y="-140" as="sourcePoint" />
            <mxPoint x="-460" y="-180" as="targetPoint" />
            <Array as="points">
              <mxPoint x="-340" y="-160" />
              <mxPoint x="-340" y="-160" />
            </Array>
          </mxGeometry>
        </mxCell>
        <mxCell id="MwubkmcJQPT0wFjcWtRc-20" style="edgeStyle=orthogonalEdgeStyle;rounded=0;orthogonalLoop=1;jettySize=auto;html=1;endArrow=none;endFill=0;dashed=1;dashPattern=12 12;fillColor=#f8cecc;strokeColor=#b85450;" edge="1" parent="1" source="Q9cqaYt2k52wGEJs03H0-5" target="2">
          <mxGeometry relative="1" as="geometry">
            <Array as="points">
              <mxPoint x="-300" y="163" />
              <mxPoint x="-300" y="163" />
            </Array>
          </mxGeometry>
        </mxCell>
        <mxCell id="Q9cqaYt2k52wGEJs03H0-5" value="VehicleSimulator" style="swimlane;fontStyle=1;align=center;verticalAlign=top;childLayout=stackLayout;horizontal=1;startSize=26;horizontalStack=0;resizeParent=1;resizeParentMax=0;resizeLast=0;collapsible=1;marginBottom=0;whiteSpace=wrap;html=1;fillColor=#f8cecc;strokeColor=#b85450;" parent="1" vertex="1">
          <mxGeometry x="-220" y="-25" width="230" height="274" as="geometry" />
        </mxCell>
        <mxCell id="Q9cqaYt2k52wGEJs03H0-6" value="&lt;div&gt;&lt;span style=&quot;background-color: initial;&quot;&gt;- MAX_ANKI_SPEED: int&lt;/span&gt;&lt;br&gt;&lt;/div&gt;&lt;div&gt;- LANE_OFFSET: float&lt;/div&gt;&lt;div&gt;&lt;br&gt;&lt;/div&gt;&lt;div&gt;# value_mutex: Lock&lt;/div&gt;&lt;div&gt;# actual_speed: float&lt;/div&gt;&lt;div&gt;# target_speed: float&lt;/div&gt;&lt;div&gt;# acceleration: float&lt;/div&gt;&lt;div&gt;# actual_offset: float&lt;/div&gt;&lt;div&gt;# target_offset: float&lt;/div&gt;&lt;div&gt;# direction_mult: int&lt;/div&gt;&lt;div&gt;# stop_direction: Angle&lt;/div&gt;&lt;div&gt;# uturn_override: UTurnOverride | None&lt;/div&gt;&lt;div&gt;&lt;br&gt;&lt;/div&gt;&lt;div&gt;+ logger: Logger&lt;/div&gt;" style="text;strokeColor=none;fillColor=none;align=left;verticalAlign=top;spacingLeft=4;spacingRight=4;overflow=hidden;rotatable=0;points=[[0,0.5],[1,0.5]];portConstraint=eastwest;whiteSpace=wrap;html=1;" parent="Q9cqaYt2k52wGEJs03H0-5" vertex="1">
          <mxGeometry y="26" width="230" height="214" as="geometry" />
        </mxCell>
        <mxCell id="Q9cqaYt2k52wGEJs03H0-7" value="" style="line;strokeWidth=1;fillColor=none;align=left;verticalAlign=middle;spacingTop=-1;spacingLeft=3;spacingRight=3;rotatable=0;labelPosition=right;points=[];portConstraint=eastwest;strokeColor=inherit;" parent="Q9cqaYt2k52wGEJs03H0-5" vertex="1">
          <mxGeometry y="240" width="230" height="8" as="geometry" />
        </mxCell>
        <mxCell id="Q9cqaYt2k52wGEJs03H0-8" value="+ method(type): type" style="text;strokeColor=none;fillColor=none;align=left;verticalAlign=top;spacingLeft=4;spacingRight=4;overflow=hidden;rotatable=0;points=[[0,0.5],[1,0.5]];portConstraint=eastwest;whiteSpace=wrap;html=1;" parent="Q9cqaYt2k52wGEJs03H0-5" vertex="1">
          <mxGeometry y="248" width="230" height="26" as="geometry" />
        </mxCell>
        <mxCell id="MwubkmcJQPT0wFjcWtRc-21" style="edgeStyle=orthogonalEdgeStyle;rounded=0;orthogonalLoop=1;jettySize=auto;html=1;endArrow=none;endFill=0;dashed=1;dashPattern=12 12;fillColor=#f8cecc;strokeColor=#b85450;" edge="1" parent="1" source="Q9cqaYt2k52wGEJs03H0-9" target="2">
          <mxGeometry relative="1" as="geometry">
            <Array as="points">
              <mxPoint x="-385" y="377" />
              <mxPoint x="-385" y="220" />
            </Array>
          </mxGeometry>
        </mxCell>
        <mxCell id="Q9cqaYt2k52wGEJs03H0-9" value="CarMapDriver" style="swimlane;fontStyle=1;align=center;verticalAlign=top;childLayout=stackLayout;horizontal=1;startSize=26;horizontalStack=0;resizeParent=1;resizeParentMax=0;resizeLast=0;collapsible=1;marginBottom=0;whiteSpace=wrap;html=1;fillColor=#f8cecc;strokeColor=#b85450;" parent="1" vertex="1">
          <mxGeometry x="-220" y="300" width="230" height="154" as="geometry" />
        </mxCell>
        <mxCell id="Q9cqaYt2k52wGEJs03H0-10" value="# simulation_ticks_per_second: int&lt;div&gt;&lt;div&gt;# track: FullTrack&lt;/div&gt;&lt;div&gt;# current_piece_index: int&lt;/div&gt;&lt;div&gt;# progress_on_current_piece: float&lt;/div&gt;&lt;div&gt;+ first_piece: TrackPiece&lt;/div&gt;&lt;div&gt;# current_position: Position&lt;/div&gt;&lt;/div&gt;" style="text;strokeColor=none;fillColor=none;align=left;verticalAlign=top;spacingLeft=4;spacingRight=4;overflow=hidden;rotatable=0;points=[[0,0.5],[1,0.5]];portConstraint=eastwest;whiteSpace=wrap;html=1;" parent="Q9cqaYt2k52wGEJs03H0-9" vertex="1">
          <mxGeometry y="26" width="230" height="94" as="geometry" />
        </mxCell>
        <mxCell id="Q9cqaYt2k52wGEJs03H0-11" value="" style="line;strokeWidth=1;fillColor=none;align=left;verticalAlign=middle;spacingTop=-1;spacingLeft=3;spacingRight=3;rotatable=0;labelPosition=right;points=[];portConstraint=eastwest;strokeColor=inherit;" parent="Q9cqaYt2k52wGEJs03H0-9" vertex="1">
          <mxGeometry y="120" width="230" height="8" as="geometry" />
        </mxCell>
        <mxCell id="Q9cqaYt2k52wGEJs03H0-12" value="+ method(type): type" style="text;strokeColor=none;fillColor=none;align=left;verticalAlign=top;spacingLeft=4;spacingRight=4;overflow=hidden;rotatable=0;points=[[0,0.5],[1,0.5]];portConstraint=eastwest;whiteSpace=wrap;html=1;" parent="Q9cqaYt2k52wGEJs03H0-9" vertex="1">
          <mxGeometry y="128" width="230" height="26" as="geometry" />
        </mxCell>
        <mxCell id="Q9cqaYt2k52wGEJs03H0-13" value="EventManager" style="shape=folder;fontStyle=1;spacingTop=10;tabWidth=40;tabHeight=14;tabPosition=left;html=1;whiteSpace=wrap;align=left;verticalAlign=top;" parent="1" vertex="1">
          <mxGeometry x="220" y="-10" width="470" height="260" as="geometry" />
        </mxCell>
        <mxCell id="Q9cqaYt2k52wGEJs03H0-14" value="GameObjectBase" style="swimlane;fontStyle=1;align=center;verticalAlign=top;childLayout=stackLayout;horizontal=1;startSize=26;horizontalStack=0;resizeParent=1;resizeParentMax=0;resizeLast=0;collapsible=1;marginBottom=0;whiteSpace=wrap;html=1;" parent="1" vertex="1">
          <mxGeometry x="340" y="-750" width="160" height="86" as="geometry" />
        </mxCell>
        <mxCell id="Q9cqaYt2k52wGEJs03H0-15" value="+ field: type" style="text;strokeColor=none;fillColor=none;align=left;verticalAlign=top;spacingLeft=4;spacingRight=4;overflow=hidden;rotatable=0;points=[[0,0.5],[1,0.5]];portConstraint=eastwest;whiteSpace=wrap;html=1;" parent="Q9cqaYt2k52wGEJs03H0-14" vertex="1">
          <mxGeometry y="26" width="160" height="26" as="geometry" />
        </mxCell>
        <mxCell id="Q9cqaYt2k52wGEJs03H0-16" value="" style="line;strokeWidth=1;fillColor=none;align=left;verticalAlign=middle;spacingTop=-1;spacingLeft=3;spacingRight=3;rotatable=0;labelPosition=right;points=[];portConstraint=eastwest;strokeColor=inherit;" parent="Q9cqaYt2k52wGEJs03H0-14" vertex="1">
          <mxGeometry y="52" width="160" height="8" as="geometry" />
        </mxCell>
        <mxCell id="Q9cqaYt2k52wGEJs03H0-17" value="+ method(type): type" style="text;strokeColor=none;fillColor=none;align=left;verticalAlign=top;spacingLeft=4;spacingRight=4;overflow=hidden;rotatable=0;points=[[0,0.5],[1,0.5]];portConstraint=eastwest;whiteSpace=wrap;html=1;" parent="Q9cqaYt2k52wGEJs03H0-14" vertex="1">
          <mxGeometry y="60" width="160" height="26" as="geometry" />
        </mxCell>
        <mxCell id="Q9cqaYt2k52wGEJs03H0-18" value="AbilityBase" style="swimlane;fontStyle=1;align=center;verticalAlign=top;childLayout=stackLayout;horizontal=1;startSize=26;horizontalStack=0;resizeParent=1;resizeParentMax=0;resizeLast=0;collapsible=1;marginBottom=0;whiteSpace=wrap;html=1;" parent="1" vertex="1">
          <mxGeometry x="250" y="-620" width="160" height="86" as="geometry" />
        </mxCell>
        <mxCell id="Q9cqaYt2k52wGEJs03H0-19" value="+ field: type" style="text;strokeColor=none;fillColor=none;align=left;verticalAlign=top;spacingLeft=4;spacingRight=4;overflow=hidden;rotatable=0;points=[[0,0.5],[1,0.5]];portConstraint=eastwest;whiteSpace=wrap;html=1;" parent="Q9cqaYt2k52wGEJs03H0-18" vertex="1">
          <mxGeometry y="26" width="160" height="26" as="geometry" />
        </mxCell>
        <mxCell id="Q9cqaYt2k52wGEJs03H0-20" value="" style="line;strokeWidth=1;fillColor=none;align=left;verticalAlign=middle;spacingTop=-1;spacingLeft=3;spacingRight=3;rotatable=0;labelPosition=right;points=[];portConstraint=eastwest;strokeColor=inherit;" parent="Q9cqaYt2k52wGEJs03H0-18" vertex="1">
          <mxGeometry y="52" width="160" height="8" as="geometry" />
        </mxCell>
        <mxCell id="Q9cqaYt2k52wGEJs03H0-21" value="+ method(type): type" style="text;strokeColor=none;fillColor=none;align=left;verticalAlign=top;spacingLeft=4;spacingRight=4;overflow=hidden;rotatable=0;points=[[0,0.5],[1,0.5]];portConstraint=eastwest;whiteSpace=wrap;html=1;" parent="Q9cqaYt2k52wGEJs03H0-18" vertex="1">
          <mxGeometry y="60" width="160" height="26" as="geometry" />
        </mxCell>
        <mxCell id="Q9cqaYt2k52wGEJs03H0-22" value="ItemBase" style="swimlane;fontStyle=1;align=center;verticalAlign=top;childLayout=stackLayout;horizontal=1;startSize=26;horizontalStack=0;resizeParent=1;resizeParentMax=0;resizeLast=0;collapsible=1;marginBottom=0;whiteSpace=wrap;html=1;" parent="1" vertex="1">
          <mxGeometry x="430" y="-620" width="160" height="86" as="geometry" />
        </mxCell>
        <mxCell id="Q9cqaYt2k52wGEJs03H0-23" value="+ field: type" style="text;strokeColor=none;fillColor=none;align=left;verticalAlign=top;spacingLeft=4;spacingRight=4;overflow=hidden;rotatable=0;points=[[0,0.5],[1,0.5]];portConstraint=eastwest;whiteSpace=wrap;html=1;" parent="Q9cqaYt2k52wGEJs03H0-22" vertex="1">
          <mxGeometry y="26" width="160" height="26" as="geometry" />
        </mxCell>
        <mxCell id="Q9cqaYt2k52wGEJs03H0-24" value="" style="line;strokeWidth=1;fillColor=none;align=left;verticalAlign=middle;spacingTop=-1;spacingLeft=3;spacingRight=3;rotatable=0;labelPosition=right;points=[];portConstraint=eastwest;strokeColor=inherit;" parent="Q9cqaYt2k52wGEJs03H0-22" vertex="1">
          <mxGeometry y="52" width="160" height="8" as="geometry" />
        </mxCell>
        <mxCell id="Q9cqaYt2k52wGEJs03H0-25" value="+ method(type): type" style="text;strokeColor=none;fillColor=none;align=left;verticalAlign=top;spacingLeft=4;spacingRight=4;overflow=hidden;rotatable=0;points=[[0,0.5],[1,0.5]];portConstraint=eastwest;whiteSpace=wrap;html=1;" parent="Q9cqaYt2k52wGEJs03H0-22" vertex="1">
          <mxGeometry y="60" width="160" height="26" as="geometry" />
        </mxCell>
        <mxCell id="ipJSjPPaV4FjVpSgNx-Q-5" value="PositionCalculus" style="swimlane;fontStyle=1;align=center;verticalAlign=top;childLayout=stackLayout;horizontal=1;startSize=26;horizontalStack=0;resizeParent=1;resizeParentMax=0;resizeLast=0;collapsible=1;marginBottom=0;whiteSpace=wrap;html=1;" parent="1" vertex="1">
          <mxGeometry x="270" y="77" width="160" height="146" as="geometry" />
        </mxCell>
        <mxCell id="ipJSjPPaV4FjVpSgNx-Q-9" value="&lt;span lang=&quot;en&quot; class=&quot;HwtZe&quot;&gt;Calculates the relative distance and direction of the game objects&lt;/span&gt;" style="rounded=0;whiteSpace=wrap;html=1;align=left;" parent="ipJSjPPaV4FjVpSgNx-Q-5" vertex="1">
          <mxGeometry y="26" width="160" height="60" as="geometry" />
        </mxCell>
        <mxCell id="ipJSjPPaV4FjVpSgNx-Q-6" value="+ field: type" style="text;strokeColor=none;fillColor=none;align=left;verticalAlign=top;spacingLeft=4;spacingRight=4;overflow=hidden;rotatable=0;points=[[0,0.5],[1,0.5]];portConstraint=eastwest;whiteSpace=wrap;html=1;" parent="ipJSjPPaV4FjVpSgNx-Q-5" vertex="1">
          <mxGeometry y="86" width="160" height="26" as="geometry" />
        </mxCell>
        <mxCell id="ipJSjPPaV4FjVpSgNx-Q-7" value="" style="line;strokeWidth=1;fillColor=none;align=left;verticalAlign=middle;spacingTop=-1;spacingLeft=3;spacingRight=3;rotatable=0;labelPosition=right;points=[];portConstraint=eastwest;strokeColor=inherit;" parent="ipJSjPPaV4FjVpSgNx-Q-5" vertex="1">
          <mxGeometry y="112" width="160" height="8" as="geometry" />
        </mxCell>
        <mxCell id="ipJSjPPaV4FjVpSgNx-Q-8" value="+ method(type): type" style="text;strokeColor=none;fillColor=none;align=left;verticalAlign=top;spacingLeft=4;spacingRight=4;overflow=hidden;rotatable=0;points=[[0,0.5],[1,0.5]];portConstraint=eastwest;whiteSpace=wrap;html=1;" parent="ipJSjPPaV4FjVpSgNx-Q-5" vertex="1">
          <mxGeometry y="120" width="160" height="26" as="geometry" />
        </mxCell>
        <mxCell id="ipJSjPPaV4FjVpSgNx-Q-11" value="Classname" style="swimlane;fontStyle=1;align=center;verticalAlign=top;childLayout=stackLayout;horizontal=1;startSize=26;horizontalStack=0;resizeParent=1;resizeParentMax=0;resizeLast=0;collapsible=1;marginBottom=0;whiteSpace=wrap;html=1;" parent="1" vertex="1">
          <mxGeometry x="520" y="77" width="160" height="146" as="geometry" />
        </mxCell>
        <mxCell id="ipJSjPPaV4FjVpSgNx-Q-15" value="&lt;span lang=&quot;en&quot; class=&quot;HwtZe&quot;&gt;Informs the game objects about their readiness according to their ability list&lt;/span&gt;" style="rounded=0;whiteSpace=wrap;html=1;align=left;" parent="ipJSjPPaV4FjVpSgNx-Q-11" vertex="1">
          <mxGeometry y="26" width="160" height="60" as="geometry" />
        </mxCell>
        <mxCell id="ipJSjPPaV4FjVpSgNx-Q-12" value="+ field: type" style="text;strokeColor=none;fillColor=none;align=left;verticalAlign=top;spacingLeft=4;spacingRight=4;overflow=hidden;rotatable=0;points=[[0,0.5],[1,0.5]];portConstraint=eastwest;whiteSpace=wrap;html=1;" parent="ipJSjPPaV4FjVpSgNx-Q-11" vertex="1">
          <mxGeometry y="86" width="160" height="26" as="geometry" />
        </mxCell>
        <mxCell id="ipJSjPPaV4FjVpSgNx-Q-13" value="" style="line;strokeWidth=1;fillColor=none;align=left;verticalAlign=middle;spacingTop=-1;spacingLeft=3;spacingRight=3;rotatable=0;labelPosition=right;points=[];portConstraint=eastwest;strokeColor=inherit;" parent="ipJSjPPaV4FjVpSgNx-Q-11" vertex="1">
          <mxGeometry y="112" width="160" height="8" as="geometry" />
        </mxCell>
        <mxCell id="ipJSjPPaV4FjVpSgNx-Q-14" value="+ method(type): type" style="text;strokeColor=none;fillColor=none;align=left;verticalAlign=top;spacingLeft=4;spacingRight=4;overflow=hidden;rotatable=0;points=[[0,0.5],[1,0.5]];portConstraint=eastwest;whiteSpace=wrap;html=1;" parent="ipJSjPPaV4FjVpSgNx-Q-11" vertex="1">
          <mxGeometry y="120" width="160" height="26" as="geometry" />
        </mxCell>
        <mxCell id="ipJSjPPaV4FjVpSgNx-Q-18" value="UI.CarMap" style="rounded=0;orthogonalLoop=1;jettySize=auto;html=1;endArrow=halfCircle;endFill=0;endSize=6;strokeWidth=1;sketch=0;fontSize=12;curved=1;exitX=1;exitY=0.186;exitDx=0;exitDy=0;exitPerimeter=0;" parent="1" source="Q9cqaYt2k52wGEJs03H0-9" edge="1">
          <mxGeometry x="1" y="30" relative="1" as="geometry">
            <mxPoint x="-75" y="315" as="sourcePoint" />
            <mxPoint x="70" y="329" as="targetPoint" />
            <Array as="points" />
            <mxPoint x="30" y="30" as="offset" />
          </mxGeometry>
        </mxCell>
        <mxCell id="ipJSjPPaV4FjVpSgNx-Q-19" value="" style="ellipse;whiteSpace=wrap;html=1;align=center;aspect=fixed;fillColor=none;strokeColor=none;resizable=0;perimeter=centerPerimeter;rotatable=0;allowArrows=0;points=[];outlineConnect=1;" parent="1" vertex="1">
          <mxGeometry x="-100" y="310" width="10" height="10" as="geometry" />
        </mxCell>
        <mxCell id="ipJSjPPaV4FjVpSgNx-Q-21" value="" style="rounded=0;orthogonalLoop=1;jettySize=auto;html=1;endArrow=oval;endFill=0;sketch=0;sourcePerimeterSpacing=0;targetPerimeterSpacing=0;endSize=10;exitX=1;exitY=0.5;exitDx=0;exitDy=0;" parent="1" source="Q9cqaYt2k52wGEJs03H0-6" edge="1">
          <mxGeometry relative="1" as="geometry">
            <mxPoint x="-400" y="265" as="sourcePoint" />
            <mxPoint x="70" y="120" as="targetPoint" />
          </mxGeometry>
        </mxCell>
        <mxCell id="ipJSjPPaV4FjVpSgNx-Q-23" value="VehicleManagement.&lt;div&gt;LocationServiceController&lt;/div&gt;" style="edgeLabel;html=1;align=center;verticalAlign=middle;resizable=0;points=[];" parent="ipJSjPPaV4FjVpSgNx-Q-21" vertex="1" connectable="0">
          <mxGeometry x="0.229" y="-1" relative="1" as="geometry">
            <mxPoint x="93" y="1" as="offset" />
          </mxGeometry>
        </mxCell>
        <mxCell id="ipJSjPPaV4FjVpSgNx-Q-22" value="" style="ellipse;whiteSpace=wrap;html=1;align=center;aspect=fixed;fillColor=none;strokeColor=none;resizable=0;perimeter=centerPerimeter;rotatable=0;allowArrows=0;points=[];outlineConnect=1;" parent="1" vertex="1">
          <mxGeometry x="-385" y="260" width="10" height="10" as="geometry" />
        </mxCell>
        <mxCell id="ipJSjPPaV4FjVpSgNx-Q-24" style="edgeStyle=orthogonalEdgeStyle;rounded=0;orthogonalLoop=1;jettySize=auto;html=1;endArrow=none;endFill=0;" parent="1" source="cke95gwzbSe76c0CqrXO-4" target="Q9cqaYt2k52wGEJs03H0-6" edge="1">
          <mxGeometry relative="1" as="geometry" />
        </mxCell>
        <mxCell id="ipJSjPPaV4FjVpSgNx-Q-29" style="edgeStyle=orthogonalEdgeStyle;rounded=0;orthogonalLoop=1;jettySize=auto;html=1;endArrow=block;endFill=0;" parent="1" source="ipJSjPPaV4FjVpSgNx-Q-25" target="Q9cqaYt2k52wGEJs03H0-18" edge="1">
          <mxGeometry relative="1" as="geometry" />
        </mxCell>
        <mxCell id="ipJSjPPaV4FjVpSgNx-Q-25" value="Hacking" style="swimlane;fontStyle=1;align=center;verticalAlign=top;childLayout=stackLayout;horizontal=1;startSize=26;horizontalStack=0;resizeParent=1;resizeParentMax=0;resizeLast=0;collapsible=1;marginBottom=0;whiteSpace=wrap;html=1;" parent="1" vertex="1">
          <mxGeometry x="50" y="-540" width="160" height="86" as="geometry" />
        </mxCell>
        <mxCell id="ipJSjPPaV4FjVpSgNx-Q-26" value="+ field: type" style="text;strokeColor=none;fillColor=none;align=left;verticalAlign=top;spacingLeft=4;spacingRight=4;overflow=hidden;rotatable=0;points=[[0,0.5],[1,0.5]];portConstraint=eastwest;whiteSpace=wrap;html=1;" parent="ipJSjPPaV4FjVpSgNx-Q-25" vertex="1">
          <mxGeometry y="26" width="160" height="26" as="geometry" />
        </mxCell>
        <mxCell id="ipJSjPPaV4FjVpSgNx-Q-27" value="" style="line;strokeWidth=1;fillColor=none;align=left;verticalAlign=middle;spacingTop=-1;spacingLeft=3;spacingRight=3;rotatable=0;labelPosition=right;points=[];portConstraint=eastwest;strokeColor=inherit;" parent="ipJSjPPaV4FjVpSgNx-Q-25" vertex="1">
          <mxGeometry y="52" width="160" height="8" as="geometry" />
        </mxCell>
        <mxCell id="ipJSjPPaV4FjVpSgNx-Q-28" value="+ method(type): type" style="text;strokeColor=none;fillColor=none;align=left;verticalAlign=top;spacingLeft=4;spacingRight=4;overflow=hidden;rotatable=0;points=[[0,0.5],[1,0.5]];portConstraint=eastwest;whiteSpace=wrap;html=1;" parent="ipJSjPPaV4FjVpSgNx-Q-25" vertex="1">
          <mxGeometry y="60" width="160" height="26" as="geometry" />
        </mxCell>
        <mxCell id="ipJSjPPaV4FjVpSgNx-Q-30" value="SpeedBoost" style="swimlane;fontStyle=1;align=center;verticalAlign=top;childLayout=stackLayout;horizontal=1;startSize=26;horizontalStack=0;resizeParent=1;resizeParentMax=0;resizeLast=0;collapsible=1;marginBottom=0;whiteSpace=wrap;html=1;" parent="1" vertex="1">
          <mxGeometry x="50" y="-437" width="160" height="86" as="geometry" />
        </mxCell>
        <mxCell id="ipJSjPPaV4FjVpSgNx-Q-31" value="+ field: type" style="text;strokeColor=none;fillColor=none;align=left;verticalAlign=top;spacingLeft=4;spacingRight=4;overflow=hidden;rotatable=0;points=[[0,0.5],[1,0.5]];portConstraint=eastwest;whiteSpace=wrap;html=1;" parent="ipJSjPPaV4FjVpSgNx-Q-30" vertex="1">
          <mxGeometry y="26" width="160" height="26" as="geometry" />
        </mxCell>
        <mxCell id="ipJSjPPaV4FjVpSgNx-Q-32" value="" style="line;strokeWidth=1;fillColor=none;align=left;verticalAlign=middle;spacingTop=-1;spacingLeft=3;spacingRight=3;rotatable=0;labelPosition=right;points=[];portConstraint=eastwest;strokeColor=inherit;" parent="ipJSjPPaV4FjVpSgNx-Q-30" vertex="1">
          <mxGeometry y="52" width="160" height="8" as="geometry" />
        </mxCell>
        <mxCell id="ipJSjPPaV4FjVpSgNx-Q-33" value="+ method(type): type" style="text;strokeColor=none;fillColor=none;align=left;verticalAlign=top;spacingLeft=4;spacingRight=4;overflow=hidden;rotatable=0;points=[[0,0.5],[1,0.5]];portConstraint=eastwest;whiteSpace=wrap;html=1;" parent="ipJSjPPaV4FjVpSgNx-Q-30" vertex="1">
          <mxGeometry y="60" width="160" height="26" as="geometry" />
        </mxCell>
        <mxCell id="ipJSjPPaV4FjVpSgNx-Q-38" value="HackingProtection" style="swimlane;fontStyle=1;align=center;verticalAlign=top;childLayout=stackLayout;horizontal=1;startSize=26;horizontalStack=0;resizeParent=1;resizeParentMax=0;resizeLast=0;collapsible=1;marginBottom=0;whiteSpace=wrap;html=1;" parent="1" vertex="1">
          <mxGeometry x="50" y="-336" width="160" height="86" as="geometry" />
        </mxCell>
        <mxCell id="ipJSjPPaV4FjVpSgNx-Q-39" value="+ field: type" style="text;strokeColor=none;fillColor=none;align=left;verticalAlign=top;spacingLeft=4;spacingRight=4;overflow=hidden;rotatable=0;points=[[0,0.5],[1,0.5]];portConstraint=eastwest;whiteSpace=wrap;html=1;" parent="ipJSjPPaV4FjVpSgNx-Q-38" vertex="1">
          <mxGeometry y="26" width="160" height="26" as="geometry" />
        </mxCell>
        <mxCell id="ipJSjPPaV4FjVpSgNx-Q-40" value="" style="line;strokeWidth=1;fillColor=none;align=left;verticalAlign=middle;spacingTop=-1;spacingLeft=3;spacingRight=3;rotatable=0;labelPosition=right;points=[];portConstraint=eastwest;strokeColor=inherit;" parent="ipJSjPPaV4FjVpSgNx-Q-38" vertex="1">
          <mxGeometry y="52" width="160" height="8" as="geometry" />
        </mxCell>
        <mxCell id="ipJSjPPaV4FjVpSgNx-Q-41" value="+ method(type): type" style="text;strokeColor=none;fillColor=none;align=left;verticalAlign=top;spacingLeft=4;spacingRight=4;overflow=hidden;rotatable=0;points=[[0,0.5],[1,0.5]];portConstraint=eastwest;whiteSpace=wrap;html=1;" parent="ipJSjPPaV4FjVpSgNx-Q-38" vertex="1">
          <mxGeometry y="60" width="160" height="26" as="geometry" />
        </mxCell>
        <mxCell id="ipJSjPPaV4FjVpSgNx-Q-46" style="edgeStyle=orthogonalEdgeStyle;rounded=0;orthogonalLoop=1;jettySize=auto;html=1;endArrow=block;endFill=0;" parent="1" source="ipJSjPPaV4FjVpSgNx-Q-42" target="Q9cqaYt2k52wGEJs03H0-22" edge="1">
          <mxGeometry relative="1" as="geometry" />
        </mxCell>
        <mxCell id="ipJSjPPaV4FjVpSgNx-Q-42" value="CyberSecProtection" style="swimlane;fontStyle=1;align=center;verticalAlign=top;childLayout=stackLayout;horizontal=1;startSize=26;horizontalStack=0;resizeParent=1;resizeParentMax=0;resizeLast=0;collapsible=1;marginBottom=0;whiteSpace=wrap;html=1;" parent="1" vertex="1">
          <mxGeometry x="650" y="-550" width="160" height="86" as="geometry" />
        </mxCell>
        <mxCell id="ipJSjPPaV4FjVpSgNx-Q-43" value="+ field: type" style="text;strokeColor=none;fillColor=none;align=left;verticalAlign=top;spacingLeft=4;spacingRight=4;overflow=hidden;rotatable=0;points=[[0,0.5],[1,0.5]];portConstraint=eastwest;whiteSpace=wrap;html=1;" parent="ipJSjPPaV4FjVpSgNx-Q-42" vertex="1">
          <mxGeometry y="26" width="160" height="26" as="geometry" />
        </mxCell>
        <mxCell id="ipJSjPPaV4FjVpSgNx-Q-44" value="" style="line;strokeWidth=1;fillColor=none;align=left;verticalAlign=middle;spacingTop=-1;spacingLeft=3;spacingRight=3;rotatable=0;labelPosition=right;points=[];portConstraint=eastwest;strokeColor=inherit;" parent="ipJSjPPaV4FjVpSgNx-Q-42" vertex="1">
          <mxGeometry y="52" width="160" height="8" as="geometry" />
        </mxCell>
        <mxCell id="ipJSjPPaV4FjVpSgNx-Q-45" value="+ method(type): type" style="text;strokeColor=none;fillColor=none;align=left;verticalAlign=top;spacingLeft=4;spacingRight=4;overflow=hidden;rotatable=0;points=[[0,0.5],[1,0.5]];portConstraint=eastwest;whiteSpace=wrap;html=1;" parent="ipJSjPPaV4FjVpSgNx-Q-42" vertex="1">
          <mxGeometry y="60" width="160" height="26" as="geometry" />
        </mxCell>
        <mxCell id="ipJSjPPaV4FjVpSgNx-Q-47" value="HackingRangeExtender" style="swimlane;fontStyle=1;align=center;verticalAlign=top;childLayout=stackLayout;horizontal=1;startSize=26;horizontalStack=0;resizeParent=1;resizeParentMax=0;resizeLast=0;collapsible=1;marginBottom=0;whiteSpace=wrap;html=1;" parent="1" vertex="1">
          <mxGeometry x="650" y="-440" width="160" height="86" as="geometry" />
        </mxCell>
        <mxCell id="ipJSjPPaV4FjVpSgNx-Q-48" value="+ field: type" style="text;strokeColor=none;fillColor=none;align=left;verticalAlign=top;spacingLeft=4;spacingRight=4;overflow=hidden;rotatable=0;points=[[0,0.5],[1,0.5]];portConstraint=eastwest;whiteSpace=wrap;html=1;" parent="ipJSjPPaV4FjVpSgNx-Q-47" vertex="1">
          <mxGeometry y="26" width="160" height="26" as="geometry" />
        </mxCell>
        <mxCell id="ipJSjPPaV4FjVpSgNx-Q-49" value="" style="line;strokeWidth=1;fillColor=none;align=left;verticalAlign=middle;spacingTop=-1;spacingLeft=3;spacingRight=3;rotatable=0;labelPosition=right;points=[];portConstraint=eastwest;strokeColor=inherit;" parent="ipJSjPPaV4FjVpSgNx-Q-47" vertex="1">
          <mxGeometry y="52" width="160" height="8" as="geometry" />
        </mxCell>
        <mxCell id="ipJSjPPaV4FjVpSgNx-Q-50" value="+ method(type): type" style="text;strokeColor=none;fillColor=none;align=left;verticalAlign=top;spacingLeft=4;spacingRight=4;overflow=hidden;rotatable=0;points=[[0,0.5],[1,0.5]];portConstraint=eastwest;whiteSpace=wrap;html=1;" parent="ipJSjPPaV4FjVpSgNx-Q-47" vertex="1">
          <mxGeometry y="60" width="160" height="26" as="geometry" />
        </mxCell>
        <mxCell id="MwubkmcJQPT0wFjcWtRc-8" style="edgeStyle=orthogonalEdgeStyle;rounded=0;orthogonalLoop=1;jettySize=auto;html=1;endArrow=block;endFill=0;" edge="1" parent="1" source="MwubkmcJQPT0wFjcWtRc-4" target="cke95gwzbSe76c0CqrXO-2">
          <mxGeometry relative="1" as="geometry" />
        </mxCell>
        <mxCell id="MwubkmcJQPT0wFjcWtRc-4" value="PhysicalLocationService" style="swimlane;fontStyle=1;align=center;verticalAlign=top;childLayout=stackLayout;horizontal=1;startSize=26;horizontalStack=0;resizeParent=1;resizeParentMax=0;resizeLast=0;collapsible=1;marginBottom=0;whiteSpace=wrap;html=1;" vertex="1" parent="1">
          <mxGeometry x="-1050" y="630" width="580" height="350" as="geometry" />
        </mxCell>
        <mxCell id="MwubkmcJQPT0wFjcWtRc-5" value="# &lt;b&gt;physical_piece&lt;/b&gt;: int | None&lt;div&gt;# &lt;b&gt;BLE_LATENCY_CORRECTION&lt;/b&gt;: float&lt;br&gt;&lt;/div&gt;&lt;div&gt;# &lt;b&gt;speed_correcture&lt;/b&gt;: float&lt;/div&gt;&lt;div&gt;#&amp;nbsp;&lt;b&gt;ALPHA_VALUE&lt;/b&gt;: float&lt;/div&gt;&lt;div&gt;&lt;br&gt;&lt;/div&gt;&lt;div&gt;# &lt;b&gt;piece_history&lt;/b&gt;: List[int | None]&lt;br&gt;&lt;/div&gt;&lt;div&gt;#&amp;nbsp;&lt;b&gt;piece_history_index&lt;/b&gt;: int&lt;/div&gt;" style="text;strokeColor=none;fillColor=none;align=left;verticalAlign=top;spacingLeft=4;spacingRight=4;overflow=hidden;rotatable=0;points=[[0,0.5],[1,0.5]];portConstraint=eastwest;whiteSpace=wrap;html=1;" vertex="1" parent="MwubkmcJQPT0wFjcWtRc-4">
          <mxGeometry y="26" width="580" height="114" as="geometry" />
        </mxCell>
        <mxCell id="MwubkmcJQPT0wFjcWtRc-6" value="" style="line;strokeWidth=1;fillColor=none;align=left;verticalAlign=middle;spacingTop=-1;spacingLeft=3;spacingRight=3;rotatable=0;labelPosition=right;points=[];portConstraint=eastwest;strokeColor=inherit;" vertex="1" parent="MwubkmcJQPT0wFjcWtRc-4">
          <mxGeometry y="140" width="580" height="8" as="geometry" />
        </mxCell>
        <mxCell id="MwubkmcJQPT0wFjcWtRc-7" value="+&amp;nbsp;&lt;span style=&quot;background-color: initial;&quot;&gt;&lt;b&gt;__init__&lt;/b&gt;(&lt;/span&gt;&lt;span style=&quot;background-color: initial;&quot;&gt;track: FullTrack,&amp;nbsp;&lt;/span&gt;&lt;span style=&quot;background-color: initial;&quot;&gt;starting_offset: float,&amp;nbsp;&lt;/span&gt;&lt;span style=&quot;background-color: initial;&quot;&gt;simulation_ticks_per_second: int,&amp;nbsp;&lt;/span&gt;&lt;span style=&quot;background-color: initial;&quot;&gt;start_immediately: bool)&lt;/span&gt;&lt;div&gt;&lt;span style=&quot;background-color: initial;&quot;&gt;#&amp;nbsp;&lt;/span&gt;&lt;span style=&quot;background-color: initial;&quot;&gt;&lt;b&gt;notification_offset_to_internal_offset&lt;/b&gt;(offset: float): float&lt;/span&gt;&lt;/div&gt;&lt;div&gt;&lt;span style=&quot;background-color: initial;&quot;&gt;+&amp;nbsp;&lt;/span&gt;&lt;span style=&quot;background-color: initial;&quot;&gt;&lt;b&gt;notify_transition_event&lt;/b&gt;(offset: float): None&lt;/span&gt;&lt;/div&gt;&lt;div&gt;&lt;span style=&quot;background-color: initial;&quot;&gt;+&amp;nbsp;&lt;/span&gt;&lt;span style=&quot;background-color: initial;&quot;&gt;&lt;b&gt;notify_location_event&lt;/b&gt;(piece: int, location: int, offset: float, speed: int): None&lt;/span&gt;&lt;/div&gt;&lt;div&gt;&lt;span style=&quot;background-color: initial;&quot;&gt;# &lt;b&gt;calculate_distance_to_position&lt;/b&gt;(other_index: int, other_progress: float): float&lt;br&gt;&lt;/span&gt;&lt;/div&gt;&lt;div&gt;&lt;span style=&quot;background-color: initial;&quot;&gt;#&amp;nbsp;&lt;/span&gt;&lt;span style=&quot;background-color: initial;&quot;&gt;&lt;b&gt;calculate_distance_to_position_forward&lt;/b&gt;(other_index: int, other_progress: float): float&lt;/span&gt;&lt;/div&gt;&lt;div&gt;&lt;span style=&quot;background-color: initial;&quot;&gt;#&amp;nbsp;&lt;/span&gt;&lt;span style=&quot;background-color: initial;&quot;&gt;&lt;b&gt;calculate_distance_to_position_backward(&lt;/b&gt;other_index: int, other_progress: float): float&lt;/span&gt;&lt;/div&gt;&lt;div&gt;&lt;span style=&quot;background-color: initial;&quot;&gt;#&amp;nbsp;&lt;/span&gt;&lt;span style=&quot;background-color: initial;&quot;&gt;&lt;b&gt;calculate_distance_on_same_piece&lt;/b&gt;(other_position: float): float&lt;/span&gt;&lt;/div&gt;&lt;div&gt;&lt;span style=&quot;background-color: initial;&quot;&gt;#&amp;nbsp;&lt;/span&gt;&lt;span style=&quot;background-color: initial;&quot;&gt;&lt;b&gt;calculate_distance_from_start&lt;/b&gt;(progress: float): float&lt;/span&gt;&lt;/div&gt;&lt;div&gt;&lt;span style=&quot;background-color: initial;&quot;&gt;#&amp;nbsp;&lt;/span&gt;&lt;span style=&quot;background-color: initial;&quot;&gt;&lt;b&gt;calculate_distance_to_end&lt;/b&gt;(piece_index: int, progress: float): float&lt;/span&gt;&lt;/div&gt;&lt;div&gt;&lt;span style=&quot;background-color: initial;&quot;&gt;# &lt;b&gt;reset_piece_history&lt;/b&gt;(): None&lt;br&gt;&lt;/span&gt;&lt;/div&gt;&lt;div&gt;&lt;span style=&quot;background-color: initial;&quot;&gt;#&amp;nbsp;&lt;/span&gt;&lt;span style=&quot;background-color: initial;&quot;&gt;&lt;b&gt;find_physical_location&lt;/b&gt;(): None&lt;/span&gt;&lt;/div&gt;&lt;div&gt;&lt;span style=&quot;background-color: initial;&quot;&gt;#&amp;nbsp;&lt;/span&gt;&lt;span style=&quot;background-color: initial;&quot;&gt;&lt;b&gt;test_history_matches_track_with_offset&lt;/b&gt;(offset: int, counting_direction: int): bool&lt;/span&gt;&lt;/div&gt;" style="text;strokeColor=none;fillColor=none;align=left;verticalAlign=top;spacingLeft=4;spacingRight=4;overflow=hidden;rotatable=0;points=[[0,0.5],[1,0.5]];portConstraint=eastwest;whiteSpace=wrap;html=1;" vertex="1" parent="MwubkmcJQPT0wFjcWtRc-4">
          <mxGeometry y="148" width="580" height="202" as="geometry" />
        </mxCell>
        <mxCell id="MwubkmcJQPT0wFjcWtRc-9" value="Direction : Enum" style="swimlane;fontStyle=0;childLayout=stackLayout;horizontal=1;startSize=26;fillColor=none;horizontalStack=0;resizeParent=1;resizeParentMax=0;resizeLast=0;collapsible=1;marginBottom=0;whiteSpace=wrap;html=1;" vertex="1" parent="1">
          <mxGeometry x="-230" y="-722" width="140" height="52" as="geometry" />
        </mxCell>
        <mxCell id="MwubkmcJQPT0wFjcWtRc-13" value="TrackPieceType : Enum" style="swimlane;fontStyle=0;childLayout=stackLayout;horizontal=1;startSize=26;fillColor=none;horizontalStack=0;resizeParent=1;resizeParentMax=0;resizeLast=0;collapsible=1;marginBottom=0;whiteSpace=wrap;html=1;" vertex="1" parent="1">
          <mxGeometry x="-240" y="-630" width="180" height="52" as="geometry" />
        </mxCell>
        <mxCell id="MwubkmcJQPT0wFjcWtRc-19" style="edgeStyle=orthogonalEdgeStyle;rounded=0;orthogonalLoop=1;jettySize=auto;html=1;endArrow=block;endFill=0;" edge="1" parent="1" source="MwubkmcJQPT0wFjcWtRc-14" target="cke95gwzbSe76c0CqrXO-11">
          <mxGeometry relative="1" as="geometry" />
        </mxCell>
        <mxCell id="MwubkmcJQPT0wFjcWtRc-14" value="StartPieceAfterLine" style="swimlane;fontStyle=0;childLayout=stackLayout;horizontal=1;startSize=26;fillColor=none;horizontalStack=0;resizeParent=1;resizeParentMax=0;resizeLast=0;collapsible=1;marginBottom=0;whiteSpace=wrap;html=1;" vertex="1" parent="1">
          <mxGeometry x="-880" y="-450" width="180" height="80" as="geometry" />
        </mxCell>
        <mxCell id="MwubkmcJQPT0wFjcWtRc-18" style="edgeStyle=orthogonalEdgeStyle;rounded=0;orthogonalLoop=1;jettySize=auto;html=1;endArrow=block;endFill=0;" edge="1" parent="1" source="MwubkmcJQPT0wFjcWtRc-16" target="cke95gwzbSe76c0CqrXO-10">
          <mxGeometry relative="1" as="geometry" />
        </mxCell>
        <mxCell id="MwubkmcJQPT0wFjcWtRc-16" value="StartPieceBeforeLine" style="swimlane;fontStyle=0;childLayout=stackLayout;horizontal=1;startSize=26;fillColor=none;horizontalStack=0;resizeParent=1;resizeParentMax=0;resizeLast=0;collapsible=1;marginBottom=0;whiteSpace=wrap;html=1;" vertex="1" parent="1">
          <mxGeometry x="-880" y="-540" width="180" height="80" as="geometry" />
        </mxCell>
      </root>
    </mxGraphModel>
  </diagram>
</mxfile>
